<svg width="24" height="24" viewBox="0 0 24 24" fill="none" xmlns="http://www.w3.org/2000/svg">
<g clip-path="url(#clip0_1379_7809)">
<path d="M15.5 17C16.0523 17 16.5 16.5523 16.5 16C16.5 15.4477 16.0523 15 15.5 15C14.9477 15 14.5 15.4477 14.5 16C14.5 16.5523 14.9477 17 15.5 17Z" fill="white" fill-opacity="0.2"/>
<path d="M8.5 17C9.05228 17 9.5 16.5523 9.5 16C9.5 15.4477 9.05228 15 8.5 15C7.94772 15 7.5 15.4477 7.5 16C7.5 16.5523 7.94772 17 8.5 17Z" fill="white" fill-opacity="0.2"/>
<path d="M6.511 8.7H17.511V14.2H6.511V8.7ZM18.38 1.88C16.4 1.099 14.046 1 12 1C9.954 1 7.6 1.099 5.62 1.88C2.683 3.024 1 5.455 1 8.546V23H23V8.546C23 5.455 21.317 3.024 18.38 1.88ZM18.6 16.268C18.6 17.863 17.302 19.15 15.707 19.15L16.95 20.382V20.8H15.3L13.65 19.15H10.537L8.887 20.8H7.05V20.382L8.282 19.15C6.698 19.15 5.4 17.852 5.4 16.268V8.7C5.4 5.807 8.7 5.4 12 5.4C15.652 5.4 18.6 5.818 18.6 8.7V16.268Z" fill="white" fill-opacity="0.2"/>
</g>
<defs>
<clipPath id="clip0_1379_7809">
<rect width="24" height="24" fill="white"/>
</clipPath>
</defs>
</svg>
